<svg version="1.0" xmlns="http://www.w3.org/2000/svg" width="32px" height="32px" viewBox="0 0 512.000000 512.000000" preserveAspectRatio="xMidYMid meet" transform="rotate(0) scale(1, 1)">

<g transform="translate(0.000000,512.000000) scale(0.100000,-0.100000)" fill="#333333" stroke="none">
<path d="M225 4691 c-11 -5 -29 -19 -40 -31 -20 -22 -20 -36 -20 -2101 l0&#10;-2079 28 -27 27 -28 360 -3 c309 -2 364 -1 390 13 64 33 60 -45 60 1266 l0&#10;1191 34 34 c24 24 43 34 65 34 77 0 51 46 599 -1055 499 -1001 512 -1026 548&#10;-1041 30 -13 82 -15 305 -12 l269 3 24 25 c14 14 248 475 521 1025 273 550&#10;506 1010 517 1022 29 31 78 39 116 19 67 -34 62 61 62 -1249 0 -1306 -4 -1229&#10;60 -1262 26 -14 81 -15 390 -13 l360 3 27 28 28 27 0 2080 0 2080 -28 27 -27&#10;28 -490 3 -489 3 -30 -28 c-20 -19 -226 -419 -636 -1235 -580 -1155 -607&#10;-1207 -642 -1223 -30 -14 -42 -15 -73 -6 -21 6 -43 17 -49 25 -6 7 -286 555&#10;-622 1217 -335 662 -619 1213 -630 1224 -19 19 -34 20 -507 22 -268 1 -496 -2&#10;-507 -6z"/>
</g>
</svg>