<svg width="34" height="34" fill="none" xmlns="http://www.w3.org/2000/svg"><path d="M17.195 11.197a5.614 5.614 0 0 0-5.602 5.603 5.614 5.614 0 0 0 5.602 5.602 5.614 5.614 0 0 0 5.603-5.602 5.614 5.614 0 0 0-5.603-5.603zM33.998 16.8c0-2.32.021-4.62-.11-6.935-.13-2.69-.743-5.077-2.71-7.044-1.971-1.97-4.354-2.58-7.044-2.71C21.814-.02 19.515 0 17.2 0c-2.32 0-4.62-.02-6.935.11-2.69.13-5.077.743-7.044 2.71C1.251 4.792.641 7.175.511 9.865.38 12.185.4 14.484.4 16.8c0 2.315-.02 4.619.11 6.934.13 2.69.743 5.077 2.71 7.044 1.971 1.971 4.354 2.58 7.044 2.71 2.32.131 4.619.11 6.935.11 2.32 0 4.618.021 6.934-.11 2.69-.13 5.077-.743 7.044-2.71 1.971-1.971 2.58-4.354 2.71-7.044.135-2.316.11-4.614.11-6.934zm-16.803 8.62c-4.77 0-8.62-3.85-8.62-8.62s3.85-8.62 8.62-8.62 8.62 3.85 8.62 8.62-3.85 8.62-8.62 8.62zm8.973-15.58a2.01 2.01 0 0 1-2.013-2.013c0-1.114.9-2.013 2.013-2.013a2.01 2.01 0 0 1 1.86 2.784 2.01 2.01 0 0 1-1.86 1.242z" fill="#333"/></svg>