<svg width="41" height="41" fill="none" xmlns="http://www.w3.org/2000/svg"><path d="M27.383 26.294c-.972 0-1.762-.684-1.762-1.524 0-.841.79-1.525 1.762-1.525.971 0 1.762.684 1.762 1.524a.8.8 0 0 0 1.601 0c0-1.467-1.093-2.7-2.562-3.036v-.416a.8.8 0 0 0-1.602 0v.416c-1.47.335-2.563 1.57-2.563 3.037 0 1.723 1.51 3.126 3.364 3.126.971 0 1.762.684 1.762 1.525 0 .84-.79 1.524-1.762 1.524s-1.762-.683-1.762-1.524a.8.8 0 0 0-1.601 0c0 1.467 1.093 2.701 2.562 3.036v.346a.8.8 0 0 0 1.602 0v-.346c1.469-.335 2.562-1.569 2.562-3.036 0-1.724-1.509-3.127-3.363-3.127zM36.154 21.531a10.434 10.434 0 0 0-4.262-3.772.8.8 0 1 0-.694 1.444 8.862 8.862 0 0 1 4.997 7.944c0 1.44-.355 2.868-1.027 4.13a.8.8 0 0 0 1.414.753 10.43 10.43 0 0 0 1.215-4.884c0-1.998-.569-3.94-1.643-5.615zM28.642 16.736h-.054a.8.8 0 0 0 0 1.602h.05a.8.8 0 0 0 .004-1.602zM23.575 35.09a8.862 8.862 0 0 1-4.997-7.944c0-1.44.355-2.869 1.027-4.13a.8.8 0 0 0-1.414-.753 10.432 10.432 0 0 0-1.214 4.883c0 2 .568 3.941 1.643 5.616a10.436 10.436 0 0 0 4.261 3.772.798.798 0 0 0 1.07-.375.8.8 0 0 0-.376-1.069zM26.186 35.955h-.047a.8.8 0 1 0-.007 1.601h.054a.8.8 0 0 0 0-1.601z" fill="#333"/><path d="M31.023 14.027a3.67 3.67 0 0 0-.356-.654h2.085a3.688 3.688 0 0 0 3.683-3.684 3.688 3.688 0 0 0-3.683-3.683h-6.413c.408-.593.647-1.31.647-2.082A3.688 3.688 0 0 0 23.303.24H3.683A3.688 3.688 0 0 0 0 3.924a3.688 3.688 0 0 0 3.684 3.683h6.412A3.662 3.662 0 0 0 9.45 9.69c0 .773.24 1.49.647 2.082H8.008a3.688 3.688 0 0 0-3.684 3.684c0 1.167.546 2.208 1.395 2.883a3.677 3.677 0 0 0 0 5.765 3.677 3.677 0 0 0 0 5.766 3.678 3.678 0 0 0-1.395 2.883 3.688 3.688 0 0 0 3.684 3.683h9.437a13.577 13.577 0 0 0 9.942 4.325C34.893 40.76 41 34.653 41 27.147c0-6.248-4.23-11.525-9.977-13.12zm1.729-6.42c1.148 0 2.082.934 2.082 2.082a2.084 2.084 0 0 1-2.082 2.082H13.133A2.084 2.084 0 0 1 11.05 9.69c0-1.148.934-2.082 2.082-2.082h19.619zM3.684 6.006a2.084 2.084 0 0 1-2.082-2.082c0-1.148.934-2.082 2.082-2.082h19.619c1.148 0 2.082.934 2.082 2.082a2.084 2.084 0 0 1-2.082 2.082H3.683zm4.324 7.367h19.619c.323 0 .631.075.908.21a13.571 13.571 0 0 0-10.782 3.955H8.008a2.084 2.084 0 0 1-2.082-2.083c0-1.148.934-2.082 2.082-2.082zm0 5.766h8.377a13.575 13.575 0 0 0-2.058 4.164h-6.32a2.084 2.084 0 0 1-2.081-2.082c0-1.148.934-2.082 2.082-2.082zm0 5.765h5.951a13.642 13.642 0 0 0-.05 4.164H8.009a2.084 2.084 0 0 1-2.082-2.082c0-1.148.934-2.082 2.082-2.082zm0 9.93a2.084 2.084 0 0 1-2.082-2.082c0-1.148.934-2.082 2.082-2.082h6.229a13.558 13.558 0 0 0 1.921 4.164h-8.15zm19.379 4.324c-6.623 0-12.012-5.388-12.012-12.012 0-6.623 5.389-12.011 12.012-12.011s12.011 5.388 12.011 12.011c0 6.624-5.388 12.012-12.011 12.012z" fill="#333"/></svg>