<svg width="78" height="16" fill="none" xmlns="http://www.w3.org/2000/svg"><path d="M15.5 6.3H9.775L8 .75 6.225 6.3H.5l4.625 3.425-1.75 5.525L8 11.825l4.625 3.425L10.85 9.7l4.65-3.4zM31 6.3h-5.725L23.5.75 21.725 6.3H16l4.625 3.425-1.75 5.525 4.625-3.425 4.625 3.425L26.35 9.7 31 6.3zM46.5 6.3h-5.725L39 .75 37.225 6.3H31.5l4.625 3.425-1.75 5.525L39 11.825l4.625 3.425L41.85 9.7l4.65-3.4zM62 6.3h-5.725L54.5.75 52.725 6.3H47l4.625 3.425-1.75 5.525 4.625-3.425 4.625 3.425L57.35 9.7 62 6.3zM77.5 6.3h-5.725L70 .75 68.225 6.3H62.5l4.625 3.425-1.75 5.525L70 11.825l4.625 3.425L72.85 9.7l4.65-3.4z" fill="#FF352B"/></svg>