<svg width="40" height="38" fill="none" xmlns="http://www.w3.org/2000/svg"><path d="M34.033 11.168a.815.815 0 0 0-.116-.281.744.744 0 0 0-.217-.216.788.788 0 0 0-.586-.116.735.735 0 0 0-.281.116.772.772 0 0 0-.348.65.767.767 0 0 0 .06.298.773.773 0 0 0 .57.467.773.773 0 0 0 .802-.332.78.78 0 0 0 .116-.586z" fill="#333"/><path d="M39.219.108H.78A.781.781 0 0 0 0 .89v6.754c0 .431.35.781.781.781h1.095V37.11c0 .432.35.782.781.782h34.686c.431 0 .781-.35.781-.782V8.425h1.095c.431 0 .781-.35.781-.781V.89a.781.781 0 0 0-.781-.782zM14.85 1.671h10.3v5.191h-10.3V1.671zm0 6.754h10.3v10.206l-1.74-1.208a.781.781 0 0 0-.891 0L20 19.17l-2.519-1.747a.78.78 0 0 0-.89 0l-1.74 1.208V8.425zM1.563 6.862V1.671h11.725v5.191H1.562zm11.725 1.563v2.114h-9.85V8.425h9.85zm7.927 14.12v13.784H3.438V12.101h9.85v8.022a.781.781 0 0 0 1.226.642l2.522-1.749 2.519 1.746a.781.781 0 0 0 .89 0l2.519-1.746 2.522 1.75a.78.78 0 0 0 1.226-.642V12.1h3.427a.781.781 0 1 0 0-1.562h-3.427V8.425h9.85v13.339H21.996a.781.781 0 0 0-.781.78zm15.347 13.784H22.777V23.326h13.785v13.003zm1.876-29.467H26.712V1.671h11.726v5.191z" fill="#333"/><path d="M35.202 28.153c-.176-1.739-1.586-3.047-3.292-3.047-.83 0-1.582.334-2.151.929-.616-.575-1.45-.929-2.295-.929-1.69 0-2.991 1.252-3.17 3.047-.024.16-.058.58.096 1.2.233.937.767 1.786 1.55 2.46l3.256 2.747a.85.85 0 0 0 .552.202.85.85 0 0 0 .551-.201l3.262-2.753c.778-.668 1.312-1.517 1.545-2.454.154-.62.12-1.042.096-1.2zm-1.613.824c-.154.621-.516 1.19-1.04 1.642l-2.801 2.363-2.795-2.358c-.53-.457-.892-1.026-1.047-1.647a1.9 1.9 0 0 1-.069-.581c.008-.03.006-.03.01-.07.077-.825.607-1.657 1.617-1.657.667 0 1.345.434 1.611 1.033a.781.781 0 0 0 1.428 0c.172-.386.582-1.033 1.407-1.033.918 0 1.65.696 1.74 1.656.003.04 0 .04.008.07a1.9 1.9 0 0 1-.069.582z" fill="#333"/></svg>