<svg width="35" height="34" fill="none" xmlns="http://www.w3.org/2000/svg"><path d="M4.2 0A3.733 3.733 0 0 0 .467 3.733v26.134A3.733 3.733 0 0 0 4.2 33.6h26.133a3.733 3.733 0 0 0 3.734-3.733V3.733A3.733 3.733 0 0 0 30.333 0H4.2zm.933 10.267h2.8c.672 0 .934.298 1.195 1.064 1.344 3.92 3.603 7.336 4.536 7.336.355 0 .523-.15.523-1.027v-4.05c-.112-1.867-1.102-2.035-1.102-2.689 0-.317.262-.634.71-.634h4.312c.597 0 .784.317.784 1.008v5.45c0 .579.242.784.429.784.355 0 .653-.205 1.288-.84 1.979-2.221 3.379-5.618 3.379-5.618.186-.411.504-.784 1.194-.784h2.744c.84 0 1.027.429.84 1.008-.354 1.605-3.696 6.328-3.696 6.328-.336.466-.41.69 0 1.232.28.392 1.251 1.213 1.886 1.978 1.194 1.326 2.072 2.446 2.333 3.211.224.784-.168 1.176-.952 1.176h-2.763c-1.045 0-1.344-.84-3.21-2.707-1.643-1.568-2.296-1.773-2.744-1.773-.56 0-.728.15-.728.952v2.464c0 .672-.206 1.064-1.96 1.064-2.912 0-6.123-1.773-8.382-5.04C5.133 15.381 4.2 11.779 4.2 11.05c0-.41.15-.783.933-.783z" fill="#333"/></svg>