<svg width="34" height="34" fill="none" xmlns="http://www.w3.org/2000/svg"><path d="M32.29 2.884C31.078.836 28.838 0 24.562 0H9.038c-4.374 0-6.652.89-7.86 3.07C0 5.198 0 8.33 0 12.668v8.266C0 29.334 1.398 33.6 9.038 33.6h15.524c3.708 0 5.763-.737 7.093-2.545C33.018 29.2 33.6 26.174 33.6 20.933v-8.266c0-4.573-.091-7.725-1.31-9.783zM21.571 17.941l-7.049 5.235a.838.838 0 0 1-.502.175.859.859 0 0 1-.562-.222c-.324-.28-.522-.78-.522-1.318V11.375c0-.538.198-1.037.521-1.316.324-.28.727-.299 1.063-.05l7.049 5.2c.358.265.584.791.584 1.365s-.223 1.101-.582 1.367z" fill="#333"/></svg>